<svg width="16" height="16" viewBox="0 0 206 191" fill="none" xmlns="http://www.w3.org/2000/svg">
    <path d="M102.71 149.85C106.43 149.84 110.15 149.41 113.95 148.61C120.22 178.03 154.25 192.1 180.18 177.17C172.91 183.35 161.77 186.98 152.29 187.57C132.65 188.79 112.22 178.33 102.77 161.13L102.71 149.86V149.85Z" fill="#AFB1B3"/>
    <path d="M102.77 161.12C101.58 163.01 99.51 165.93 98.13 167.61C95.32 171.04 91.58 174.75 87.7 177.5C68.84 190.89 38.68 192.05 19.09 172.68C19.37 172.16 23.86 176.44 27.98 178.36C32.27 180.36 33.13 180.76 37.26 181.78C61.52 187.79 86.17 173.03 91.47 148.59C95.27 149.44 98.98 149.84 102.7 149.83L102.76 161.1L102.77 161.12Z" fill="#AFB1B3"/>
    <path d="M81.04 4.65001C58.27 14.29 48.16 37.73 49.05 56.61C49.46 65.23 52.77 72.85 55.96 80.64L65.73 85.69C65.79 85.59 65.67 85.79 65.73 85.69C67.64 82.44 69.67 79.91 71.99 76.96C66.98 71.27 62.09 65.09 60.08 57.7C54.57 37.5 61.49 19.14 78.08 7.32001C78.67 6.90001 84.67 3.66001 88.03 2.47001C88.95 2.14001 86.36 2.39001 81.04 4.65001Z" fill="#AFB1B3"/>
    <path d="M55.97 80.64C32.29 80.21 10.32 97.52 4.58998 120.37C3.31998 125.43 2.16998 130.8 2.68998 135.95C2.74998 136.56 3.14998 143.52 4.28998 147.15L3.87998 137.74C3.95998 129.15 5.84998 125.44 6.62998 123.27C14.59 101.06 39.11 89.52 61.6 96.23C62.17 92.73 63.99 88.75 65.74 85.7L55.97 80.65V80.64Z" fill="#AFB1B3"/>
    <path d="M117.28 2.10999C117.28 2.10999 125.66 5.41999 133.94 13.11C151.62 30.75 151.17 59.37 133.43 76.97C135.57 79.68 137.74 82.47 139.57 85.43L149.02 80.31C150.85 76.65 152.53 75.02 154.09 69.05C160.88 42.97 148.85 11.96 117.28 2.10999Z" fill="#AFB1B3"/>
    <path d="M149.02 80.31C151.34 80.37 154.23 80.57 156.02 80.84C164.99 82.22 171.92 84.78 180.06 90.5C195.5 101.34 204.35 120.84 202.26 141.23C202.26 141.23 201.51 145.49 200.78 147.05C201.39 139.11 201.31 130.34 199.31 124.49C191.47 101.62 167.04 89.13 143.84 96.22C143.23 92.29 141.62 88.74 139.58 85.42" fill="#AFB1B3"/>
    <path d="M103.07 64.35C93.23 64.33 83.44 67.67 75.48 73.9C74.75 73.15 69.3 66.81 68.71 66C77.29 57.67 90.73 53.6 103.01 53.55L103.07 64.34V64.35Z" fill="#AFB1B3"/>
    <path d="M103.01 53.56C104.89 53.56 106.74 53.64 108.54 53.82C115.58 54.52 126.04 58.18 135.21 64.53C135.64 64.83 136.85 65.91 136.85 65.91L133.35 70.47C133.04 70.72 132.05 72.06 130.55 73.67C130.55 73.67 123.53 69.6 121.76 68.72C115.83 65.78 109.44 64.36 103.06 64.35L103 53.56H103.01Z" fill="#AFB1B3"/>
    <path d="M56.14 133.94C62.29 144.65 72.11 152.91 84.09 157.25L87.46 147.15C78.71 144.42 70.24 136.65 65.4 128.3L56.14 133.94Z" fill="#AFB1B3"/>
    <path d="M56.14 133.94C50.35 123.86 47.83 111.6 49.83 98.41C51.63 98.93 54.63 99.13 57.07 99.61C57.18 99.63 59.62 100.03 60.03 100.06C59.42 107.17 60.21 115.15 62.49 121.95C63.2 124.06 64.18 126.2 65.41 128.3L56.15 133.94H56.14Z" fill="#AFB1B3"/>
    <path d="M139.94 127.96C144.43 119.74 146.5 109.9 145.31 100.53L155.51 98.82C157.03 110.66 155.17 122.62 149.45 133.07L139.94 127.95V127.96Z" fill="#AFB1B3"/>
    <path d="M139.94 127.96C136.93 133.46 132.93 138.16 127.77 141.84C126.28 142.9 121.05 146.4 118.36 147.6L121.33 157.25C124.48 155.98 126.81 154.9 129.4 153.43C136.49 149.39 144.86 141.1 148.93 134.01C149.11 133.7 149.28 133.39 149.45 133.08L139.94 127.96Z" fill="#AFB1B3"/>
    <path d="M116.56 93.63C120.29 97.4 122.4 100.63 122.19 109.21C124.15 107.6 125.86 103.21 126.07 102.19C126.07 102.19 132.92 98.03 134.62 91.55C135.22 89.27 135.45 85.56 134.69 83.21C134.26 87.99 130.89 92.71 126.18 94.01C126.18 94.01 126.12 93.35 125.94 92.8C125.41 91.22 124.51 89.72 123.5 88.42C123.17 87.99 122.95 87.73 122.7 87.48L116.56 93.63Z" fill="#3592C4"/>
    <path d="M116.56 93.63C111.93 88.95 107.4 87.86 100.98 87.57C102.22 85.5 106.89 84.02 107.79 83.86C107.79 83.86 110.62 80.19 112.04 78.93C113.11 77.98 115.55 75.7 119.38 75.02C123.21 74.34 126.09 75.02 126.09 75.02C124.06 75.56 123.36 75.73 122.03 76.37C120.03 77.32 115.25 81.36 116.14 83.68C118.35 84.54 119.53 84.97 121.77 86.71C122.19 87.04 122.46 87.26 122.7 87.5L116.57 93.63H116.56Z" fill="#3592C4"/>
    <path d="M121.76 112.24C124.05 114.92 127.81 120.59 128.54 124.66C128.54 124.66 129.67 131.72 128.81 132.42C128.16 132.96 127.63 130.28 126.74 128.67C124.92 125.37 122.45 121.97 119.15 120.03C119.89 118.7 121.45 113.82 121.75 112.24H121.76Z" fill="#AFB1B3"/>
    <path d="M96.65 88C96.3 88.09 92.03 89.88 90.16 91.03C87.85 86.49 82.84 83.76 78.16 82.04C78.16 82.04 76.63 81.69 77.61 81.08C83.9 79.98 92.14 83.12 96.65 88Z" fill="#AFB1B3"/>
    <path d="M84.97 94.92C83.95 95.84 80.9199 99.06 80.2099 100.11C77.1499 96.51 73.28 94.02 68.08 93.62C64.02 92.47 70.73 91.64 73.33 91.64C77.37 91.64 81.5199 93.26 84.9599 94.92H84.97Z" fill="#AFB1B3"/>
    <path d="M115.03 125.46C118.08 129.53 119.38 142.47 116.9 142.96C115.07 137.67 113.89 133.25 110.07 129.55C110.97 128.92 114.37 126.18 115.03 125.46Z" fill="#AFB1B3"/>
    <path d="M104.44 132.58C105.79 137.77 104.34 143.2 102.49 147.6C102.49 147.6 101.22 148.61 101.4 146.35C101.34 139.66 100.62 138.33 98.8101 133.88C100.39 133.64 102.97 133.11 104.44 132.58Z" fill="#AFB1B3"/>
    <path d="M77.6101 105.31C77.1501 106.5 76.0101 110.25 75.8801 111.37C72.2301 108.71 69.9001 108.59 65.6401 108.33C62.8601 108.16 61.5501 108.57 62.4701 107.7C66.8401 104.56 72.5301 104.67 77.6101 105.31Z" fill="#AFB1B3"/>
    <path d="M122.19 109.21C122.04 110.75 121.97 111.11 121.76 112.24C121.46 113.82 119.9 118.7 119.16 120.03C119 120.31 115.58 124.88 115.26 125.22C114.61 125.94 110.97 128.92 110.07 129.55C108.79 130.45 105.94 132.04 104.44 132.58C102.98 133.11 100.4 133.64 98.81 133.88C93.27 134.71 87.19 133.31 85.83 131.72C84.47 130.13 84.2 127.53 84.96 124.8C86.98 123.76 89.67 119.93 91.45 118.31C94.38 121.2 96.57 123.9 98.8 127.4C99.07 123.53 96.73 118.87 94.04 116.15L98.51 111.44C101.84 114.79 104.12 117.77 106.21 122.28C107.22 117.59 104.8 111.65 101.39 108.36L105.5 104.62C106.59 105.72 107.78 106.89 108.74 108.16L114.81 117.45C115.07 113.99 114.75 111.27 113.63 108.03C112.97 106.11 110.56 101.91 109.18 100.57L116.54 93.65C121.12 98.06 122.81 102.73 122.17 109.23L122.19 109.21Z" fill="#C75450"/>
    <path d="M100.98 87.57C107.12 87.57 112.1 89.02 116.56 93.63L109.2 100.55C105.52 96.99 97.8 94.24 92.75 95.36C96.57 97.04 100.69 100.06 104.27 103.5C104.61 103.83 105.42 104.49 105.51 104.59L101.4 108.33C97.8 104.85 92.55 102.72 87.55 103.14C90.91 105.05 92.25 105.59 96.85 109.87C97.8 110.76 98.21 111.11 98.51 111.41L94.04 116.12C91.38 113.42 86.19 110.59 82.36 111.37C85.92 113.17 88.63 115.52 91.45 118.29C89.67 119.92 86.98 123.75 84.96 124.78C84.02 125.26 82.68 125.29 81.59 125.24C80.5 125.19 78.47 124.35 78.47 124.35C76.27 120.13 75.27 116.35 75.87 111.37C76.01 110.25 77.14 106.5 77.6 105.31C77.92 104.48 79.76 100.77 80.2 100.12C80.91 99.07 83.94 95.85 84.96 94.93C86.14 93.87 88.83 91.83 90.15 91.03C91.87 90 96.29 88.09 96.64 88C96.85 87.95 98.65 87.57 100.97 87.57H100.98Z" fill="#C75450"/>
    <path d="M84.97 124.79C84.2 127.52 84.41 129.8 85.84 131.71C81.65 129.54 80.65 128.52 78.48 124.35C78.48 124.35 80.44 125.2 81.6 125.24C82.76 125.28 84.03 125.26 84.97 124.78V124.79Z" fill="none"/>
    <path d="M109.2 100.55C110.58 101.89 112.99 106.09 113.65 108.01C114.76 111.26 115.09 113.97 114.83 117.43L108.76 108.14C107.81 106.87 106.61 105.7 105.52 104.6C105.42 104.5 103.06 102.45 102.71 102.13C99.47 99.14 96.72 97.35 92.76 95.37C97.81 94.25 105.53 96.99 109.21 100.56L109.2 100.55Z" fill="none"/>
    <path d="M101.41 108.34C104.82 111.63 107.24 117.57 106.23 122.26C104.09 117.9 100.86 113.63 98.5299 111.42C93.6499 106.81 91.3899 105.38 87.5699 103.15C92.5699 102.73 97.8199 104.86 101.42 108.34H101.41Z" fill="none"/>
    <path d="M94.06 116.13C96.74 118.86 99.08 123.52 98.82 127.38C96.58 123.88 94.4 121.18 91.47 118.29C88.65 115.52 85.95 113.17 82.38 111.37C86.21 110.59 91.4 113.42 94.06 116.12V116.13Z" fill="none"/>
</svg>
